<svg width="21" height="20" viewBox="0 0 21 20" fill="none" xmlns="http://www.w3.org/2000/svg">
<path d="M9.60359 0.85958C9.90344 -0.0606967 11.2054 -0.0606959 11.5052 0.859581L13.2563 6.23398C13.3904 6.64561 13.7742 6.92418 14.2071 6.92418H19.8679C20.8372 6.92418 21.2396 8.16521 20.4546 8.73398L15.8797 12.0486C15.5282 12.3033 15.3812 12.7555 15.5156 13.1682L17.2642 18.5349C17.5642 19.4557 16.5109 20.2227 15.7267 19.6544L11.1411 16.3321C10.7911 16.0784 10.3177 16.0784 9.96768 16.3321L5.38213 19.6544C4.59787 20.2227 3.54458 19.4557 3.84461 18.5348L5.59318 13.1682C5.72763 12.7555 5.58055 12.3033 5.22909 12.0486L0.65422 8.73398C-0.130787 8.16521 0.271544 6.92418 1.24094 6.92418H6.90169C7.33462 6.92418 7.71838 6.64561 7.8525 6.23398L9.60359 0.85958Z" fill="#070707"/>
</svg>
